<svg width="100" height="22" viewBox="0 0 100 22" fill="none" xmlns="http://www.w3.org/2000/svg">
<path d="M47.078 5.98401L43.603 8.51102V0.0930176H47.078V5.98401ZM7.01202 13.184H14.819L16.156 16.33H5.69305L3.68506 21.064H0L9.25806 0.0900269H12.558L7.01202 13.184ZM32.367 0.0900269H28.893V21.064H32.428V6.02402L43.604 21.064H47.079V19.727L32.367 0.0900269ZM74.278 3.26602H57.47V0.0900269H74.278V3.26602ZM64.092 10.105V21.064H67.627V12.526L64.092 10.105ZM99.882 18.486C98.9352 19.1913 97.8975 19.7655 96.797 20.193V10.756H99.882V18.486ZM91.942 0C85.59 0 80.7061 4.58503 80.7061 10.577C80.6963 12.0716 81.0085 13.5508 81.6215 14.9139C82.2344 16.2771 83.1336 17.4924 84.2581 18.477L86.59 15.935C85.8624 15.2459 85.284 14.4149 84.8904 13.4933C84.4969 12.5717 84.2966 11.5791 84.302 10.577C84.3053 9.58448 84.5067 8.60258 84.8944 7.68887C85.2821 6.77516 85.8482 5.94804 86.5597 5.25595C87.2711 4.56387 88.1136 4.02075 89.0377 3.65845C89.9617 3.29614 90.9488 3.12193 91.941 3.14603C94.185 3.17373 96.3399 4.02828 97.993 5.54602L100.001 2.93903C97.7409 1.04704 94.8886 0.0080271 91.941 0.00302124" fill="white"/>
</svg>
