<svg width="8" height="11" viewBox="0 0 8 11" fill="none" xmlns="http://www.w3.org/2000/svg">
<path fill-rule="evenodd" clip-rule="evenodd" d="M1.10054 0.636357C1.20121 0.594611 1.31182 0.571429 1.42857 0.571429H2.28571C2.44351 0.571429 2.57143 0.44351 2.57143 0.285714C2.57143 0.127919 2.44351 0 2.28571 0H1.42857C1.2354 0 1.05049 0.0384997 0.881656 0.108513C0.735896 0.168957 0.666734 0.336119 0.727178 0.481879C0.787622 0.627639 0.954784 0.696801 1.10054 0.636357ZM4 0C3.8422 0 3.71429 0.127919 3.71429 0.285714C3.71429 0.44351 3.8422 0.571429 4 0.571429H4.85714C4.97389 0.571429 5.0845 0.594611 5.18517 0.636357C5.33093 0.696801 5.49809 0.627639 5.55854 0.481879C5.61898 0.336119 5.54982 0.168957 5.40406 0.108513C5.23522 0.0384997 5.05032 0 4.85714 0H4ZM0.636357 1.10054C0.696801 0.954783 0.627639 0.787622 0.481879 0.727178C0.336119 0.666733 0.168957 0.735896 0.108513 0.881655C0.0384997 1.05049 0 1.2354 0 1.42857V2.14286C0 2.30065 0.127919 2.42857 0.285714 2.42857C0.44351 2.42857 0.571429 2.30065 0.571429 2.14286V1.42857C0.571429 1.31182 0.594611 1.20121 0.636357 1.10054ZM6.1772 0.881656C6.11676 0.735896 5.94959 0.666734 5.80384 0.727178C5.65808 0.787622 5.58891 0.954784 5.64936 1.10054C5.6911 1.20121 5.71429 1.31182 5.71429 1.42857V2.14286C5.71429 2.30065 5.8422 2.42857 6 2.42857C6.10575 2.42857 6.19809 2.37111 6.24749 2.28571H6.57143C7.04482 2.28571 7.42857 2.66947 7.42857 3.14286V8.85714C7.42857 9.33053 7.04482 9.71428 6.57143 9.71428H2.57143C2.09804 9.71428 1.71429 9.33053 1.71429 8.85714V8.57143H2.28571C2.44351 8.57143 2.57143 8.44351 2.57143 8.28571C2.57143 8.12792 2.44351 8 2.28571 8H1.42857C1.31182 8 1.20121 7.97682 1.10054 7.93507C0.954783 7.87463 0.787622 7.94379 0.727178 8.08955C0.666733 8.23531 0.735896 8.40247 0.881655 8.46291C0.965111 8.49752 1.05249 8.52443 1.14286 8.54279V8.85714C1.14286 9.64612 1.78245 10.2857 2.57143 10.2857H6.57143C7.36041 10.2857 8 9.64612 8 8.85714V3.14286C8 2.35388 7.36041 1.71429 6.57143 1.71429H6.28571V1.42857C6.28571 1.2354 6.24721 1.05049 6.1772 0.881656ZM0.571429 3.57143C0.571429 3.41363 0.44351 3.28571 0.285714 3.28571C0.127919 3.28571 0 3.41363 0 3.57143V5C0 5.15779 0.127919 5.28571 0.285714 5.28571C0.44351 5.28571 0.571429 5.15779 0.571429 5V3.57143ZM6.28571 3.57143C6.28571 3.41363 6.15779 3.28571 6 3.28571C5.8422 3.28571 5.71429 3.41363 5.71429 3.57143V5C5.71429 5.15779 5.8422 5.28571 6 5.28571C6.15779 5.28571 6.28571 5.15779 6.28571 5V3.57143ZM0.571429 6.42857C0.571429 6.27078 0.44351 6.14286 0.285714 6.14286C0.127919 6.14286 0 6.27078 0 6.42857V7.14286C0 7.33603 0.0384997 7.52094 0.108513 7.68977C0.168957 7.83553 0.336119 7.90469 0.481879 7.84425C0.627639 7.78381 0.696801 7.61664 0.636357 7.47088C0.594611 7.37022 0.571429 7.2596 0.571429 7.14286V6.42857ZM6.28571 6.42857C6.28571 6.27078 6.15779 6.14286 6 6.14286C5.8422 6.14286 5.71429 6.27078 5.71429 6.42857V7.14286C5.71429 7.2596 5.6911 7.37022 5.64936 7.47088C5.58891 7.61664 5.65808 7.78381 5.80383 7.84425C5.94959 7.90469 6.11676 7.83553 6.1772 7.68977C6.24721 7.52094 6.28571 7.33603 6.28571 7.14286V6.42857ZM5.40406 8.46292C5.54982 8.40247 5.61898 8.23531 5.55854 8.08955C5.49809 7.94379 5.33093 7.87463 5.18517 7.93507C5.0845 7.97682 4.97389 8 4.85714 8H4C3.8422 8 3.71429 8.12792 3.71429 8.28571C3.71429 8.44351 3.8422 8.57143 4 8.57143H4.85714C5.05032 8.57143 5.23522 8.53293 5.40406 8.46292Z" fill="white"/>
</svg>
