<svg width="77" height="31" viewBox="0 0 77 31" fill="none" xmlns="http://www.w3.org/2000/svg">
<path d="M2.33489 18.2566C1.51588 16.7449 1.55438 14.6624 2.44252 12.3927C3.38054 9.99393 5.18832 7.60482 7.53162 5.66718C10.0744 3.5644 12.9585 2.20823 15.6526 1.84986C18.1963 1.5117 20.2412 2.10898 21.4103 3.53454C22.5802 4.9601 22.7735 7.08923 21.9554 9.53016C21.0883 12.116 19.2105 14.6975 16.6677 16.8003C13.9665 19.0339 10.8917 20.412 8.14588 20.6659C8.56939 21.0928 8.9964 21.6163 9.41378 22.2575C12.2025 21.748 15.1688 20.3154 17.7807 18.1556C20.5729 15.8464 22.644 12.9821 23.6135 10.0897C24.6321 7.05233 24.3284 4.32769 22.7604 2.41728C21.1924 0.506866 18.5875 -0.313513 15.4225 0.108095C12.4081 0.509501 9.21077 2.0027 6.41947 4.311C3.85042 6.43573 1.85888 9.07781 0.814115 11.7506C-0.265656 14.5113 -0.271781 17.12 0.798364 19.0954C1.02937 19.5214 1.5605 19.6795 1.98489 19.4476C2.40927 19.2157 2.56677 18.6826 2.33577 18.2566H2.33489Z" fill="white"/>
<path d="M13.7806 7.53021C13.3501 7.31151 12.8233 7.48454 12.6046 7.91757L6.74023 19.5566C7.18999 19.8218 7.66425 20.1811 8.14376 20.6633L14.1665 8.70984C14.3844 8.27681 14.212 7.74892 13.7806 7.52934V7.53021Z" fill="white"/>
<path d="M17.5186 28.9479C17.2508 28.9787 16.9752 28.9945 16.6935 28.9945C16.6392 28.9945 16.5841 28.9945 16.529 28.9927C16.5071 28.9927 16.4922 28.9927 16.4695 28.9927C16.4581 28.9927 15.4247 29.0226 13.973 28.3014C12.6168 27.6278 10.6095 26.1442 8.74044 22.9005C8.70369 22.8284 8.60393 22.6431 8.44643 22.3972H8.44993C7.51454 21.0735 6.56427 20.3902 5.77676 20.0432C5.01374 19.7393 4.20698 19.6743 3.38359 19.8605C2.91195 19.9668 2.6162 20.4376 2.72207 20.9101C2.82795 21.3836 3.29608 21.6804 3.76772 21.5742C4.46073 21.4169 5.06362 21.5882 5.56238 21.8895L1.7403 29.4749C1.52243 29.908 1.6948 30.4358 2.12619 30.6554C2.25306 30.7195 2.38782 30.7503 2.52082 30.7503C2.8402 30.7503 3.14821 30.5737 3.30221 30.2681L6.8714 23.1851C7.06391 23.4661 7.17153 23.6787 7.18553 23.7068C7.19428 23.7244 7.20303 23.7411 7.21266 23.7577C11.1966 30.6906 15.9821 30.7635 16.5167 30.7477C16.5753 30.7485 16.634 30.7494 16.6926 30.7494C17.3629 30.7494 18.0069 30.6765 18.6167 30.5386C18.174 30.088 17.8074 29.5549 17.5177 28.9462L17.5186 28.9479Z" fill="white"/>
<path d="M76.0375 18.5903C76.5691 18.5903 77 18.1578 77 17.6241C77 17.0905 76.5691 16.658 76.0375 16.658C75.5059 16.658 75.075 17.0905 75.075 17.6241C75.075 18.1578 75.5059 18.5903 76.0375 18.5903Z" fill="white"/>
<path d="M23.0805 27.1867C23.4655 26.3961 23.6694 25.5222 23.6694 24.6149C23.6694 23.7997 23.4865 23.0083 23.126 22.2626C23.0297 22.0395 22.7427 21.4247 22.2912 20.845C22.0716 21.2051 21.8651 21.5845 21.6779 21.9763C21.5693 22.2029 21.4696 22.4304 21.3751 22.6596C21.4311 22.7659 21.4818 22.8713 21.5265 22.975C21.5326 22.989 21.5387 23.0022 21.5448 23.0163C21.7934 23.5257 21.9194 24.0641 21.9194 24.6157C21.9194 25.7172 21.4915 26.7484 20.7153 27.5231C20.8247 27.8797 20.9717 28.0764 21.0837 28.13C21.278 28.224 21.8669 28.1353 22.6929 27.5073C22.8224 27.4089 22.9519 27.3017 23.0805 27.1867Z" fill="white"/>
<path d="M31.5369 27.3607C29.6346 28.7379 28.7605 28.802 28.4227 28.73C28.2022 28.6835 28.0649 28.5376 27.917 28.1933C27.7814 27.8771 27.8242 26.2346 28.8218 23.1727C29.744 20.3426 31.046 17.6083 32.3953 15.6707C32.6718 15.2728 32.5756 14.7256 32.1792 14.448C31.7828 14.1705 31.2377 14.2671 30.9612 14.665C30.3119 15.5978 29.6749 16.6992 29.0808 17.8999C28.8008 16.6501 28.1664 15.7445 27.2327 15.2939C25.9902 14.694 24.4519 15.0128 22.9023 16.1898C21.518 17.2412 20.2431 18.8907 19.3121 20.8345C18.3811 22.7783 17.8937 24.8082 17.94 26.5499C17.9593 27.2614 18.0678 27.8982 18.2559 28.4516C18.6086 29.243 19.1371 29.9588 19.9158 30.4876C19.9263 30.4929 19.936 30.499 19.9465 30.5043C20.3568 30.7019 20.7987 30.8003 21.2634 30.8003C22.2057 30.8003 23.2383 30.3971 24.2769 29.6084C24.9209 29.1191 25.5413 28.499 26.1145 27.7814C26.1232 28.2118 26.1827 28.5921 26.3105 28.889C26.6832 29.7577 27.273 30.2829 28.0622 30.4498C28.239 30.4876 28.4227 30.506 28.6161 30.506C29.5926 30.506 30.7792 30.0203 32.2273 29.0225C31.9473 28.5218 31.7172 27.9667 31.5369 27.3615V27.3607ZM26.2903 24.2021C25.4774 25.8991 24.388 27.3211 23.2208 28.2074C23.156 28.2566 23.0921 28.3031 23.0283 28.3479C23.0108 28.3602 22.9941 28.3708 22.9766 28.3831C22.9294 28.4156 22.883 28.4472 22.8366 28.477C22.8191 28.4885 22.8016 28.4981 22.785 28.5095C22.7386 28.5385 22.6923 28.5675 22.6459 28.5939C22.631 28.6026 22.6161 28.6105 22.6004 28.6193C22.5523 28.6466 22.5033 28.6738 22.456 28.6984C22.4438 28.7045 22.4315 28.7107 22.4193 28.7168C22.3685 28.7423 22.3178 28.7669 22.2679 28.7897C22.2591 28.7941 22.2504 28.7976 22.2407 28.802C22.1874 28.8257 22.1349 28.8477 22.0824 28.8679C22.0771 28.8697 22.071 28.8723 22.0657 28.8741C22.0097 28.8951 21.9546 28.9145 21.9004 28.932L21.8934 28.9347C21.8356 28.9522 21.7796 28.968 21.7236 28.9821C21.3351 29.0752 20.9877 29.0585 20.7051 28.9224C20.4076 28.7792 20.1678 28.4964 19.9955 28.1029C19.9272 27.9465 19.8695 27.7735 19.8231 27.5846V27.5811C19.8073 27.5214 19.7942 27.4599 19.782 27.3967C19.782 27.3923 19.7802 27.3879 19.7793 27.3835C19.768 27.3246 19.7575 27.264 19.7487 27.2017C19.7478 27.1929 19.7461 27.185 19.7443 27.1762C19.7356 27.1191 19.7286 27.0603 19.7225 27.0005C19.7207 26.9865 19.719 26.9733 19.7172 26.9601C19.7111 26.903 19.7067 26.8442 19.7023 26.7845C19.7015 26.7678 19.6997 26.752 19.6979 26.7353C19.6936 26.6589 19.6892 26.5816 19.6875 26.5025C19.6848 26.4129 19.6848 26.3216 19.6857 26.2293C19.6857 26.1942 19.6875 26.1591 19.6892 26.1239C19.691 26.0668 19.6918 26.0098 19.6945 25.9518C19.6962 25.9061 19.7006 25.8604 19.7032 25.8139C19.7067 25.7656 19.7093 25.7181 19.7128 25.669C19.7172 25.6163 19.7233 25.5627 19.7286 25.5091C19.733 25.4669 19.7365 25.4248 19.7417 25.3826C19.7487 25.3238 19.7566 25.2649 19.7645 25.2052C19.7697 25.1674 19.7741 25.1305 19.7793 25.0928C19.789 25.0286 19.7995 24.9636 19.8108 24.8995C19.8161 24.8661 19.8213 24.8336 19.8275 24.8003C19.8397 24.7309 19.8537 24.6615 19.8677 24.5912C19.8738 24.5622 19.8791 24.5341 19.8852 24.5051C19.901 24.4305 19.9176 24.3558 19.9351 24.2812C19.9403 24.2566 19.9465 24.232 19.9517 24.2074C19.9701 24.1283 19.9902 24.0493 20.0112 23.9702C20.0165 23.95 20.0217 23.9289 20.027 23.9087C20.0488 23.8253 20.0725 23.7419 20.097 23.6584C20.1022 23.6417 20.1066 23.625 20.1118 23.6083C20.1372 23.5214 20.1643 23.4336 20.1923 23.3457C20.1967 23.3325 20.2002 23.3194 20.2046 23.3062C20.2335 23.2148 20.2641 23.1235 20.2965 23.0321C20.3 23.0225 20.3035 23.0128 20.3061 23.0032C20.3393 22.9083 20.3735 22.8143 20.4093 22.7195C20.412 22.7133 20.4137 22.7072 20.4163 22.701C20.4531 22.6035 20.4916 22.506 20.531 22.4085C20.5327 22.405 20.5336 22.4015 20.5353 22.3971C20.5756 22.297 20.6176 22.1968 20.6605 22.0976L20.6622 22.0941C20.734 21.9272 20.8092 21.7612 20.888 21.5952C21.1251 21.0998 21.3867 20.629 21.6667 20.1863C21.7079 20.1204 21.749 20.0563 21.791 19.9931C21.7945 19.9869 21.7989 19.9816 21.8024 19.9764C21.924 19.7919 22.0491 19.6136 22.1769 19.4406C22.1891 19.4248 22.2005 19.4089 22.2127 19.3931C22.3291 19.2377 22.4481 19.0866 22.5689 18.9417C22.5908 18.9153 22.6135 18.8881 22.6354 18.8617C22.6678 18.8231 22.701 18.7853 22.7334 18.7476C22.7631 18.7133 22.7938 18.6799 22.8235 18.6465C22.862 18.6035 22.9005 18.5613 22.9399 18.5201C22.9828 18.4744 23.0256 18.4287 23.0694 18.3839C23.0948 18.3584 23.1193 18.333 23.1446 18.3075C23.1849 18.2671 23.2251 18.2267 23.2663 18.1872C23.2873 18.167 23.3083 18.1459 23.3293 18.1257C23.3896 18.0686 23.45 18.0133 23.5104 17.9588C23.5261 17.9447 23.5419 17.9307 23.5585 17.9166C23.6084 17.8727 23.6583 17.8306 23.7082 17.7884C23.7265 17.7726 23.7449 17.7577 23.7642 17.7418C23.828 17.6891 23.8928 17.6382 23.9575 17.589C24.6777 17.0427 25.3602 16.7563 25.9149 16.7563C26.1206 16.7563 26.3087 16.7959 26.4741 16.8758C27.0866 17.1718 27.4567 18.0528 27.49 19.2939C27.5294 20.7616 27.1032 22.5051 26.2903 24.2012V24.2021Z" fill="white"/>
<path d="M41.1845 27.6164C38.9812 28.9076 36.5968 29.1 35.3499 28.4438L35.0874 28.2647C35.0874 28.2647 35.0795 28.2594 35.076 28.2568C34.7479 28.0407 34.5029 27.7394 34.3235 27.3802C34.7024 27.0525 35.0961 26.6986 35.5048 26.3174C35.944 25.908 36.3457 25.4443 36.7 24.9392L36.7657 24.8461C36.7657 24.8461 36.7709 24.8382 36.7744 24.8338C38.0826 22.8971 39.403 20.5598 40.593 18.074C41.7323 15.6955 42.5924 13.3459 43.0142 11.4601C43.5427 9.09905 43.323 7.72092 42.3439 7.24836C41.3639 6.77581 40.1555 7.46356 38.6487 9.35289C37.4447 10.8619 36.154 13.0033 35.0148 15.3819C34.208 17.0666 33.5307 18.7609 33.0565 20.2848C32.9847 20.4886 32.437 22.0837 32.2375 23.9335C32.115 25.0719 32.157 26.0073 32.3066 26.775C32.3013 26.7794 32.297 26.7829 32.2917 26.7873C32.4413 27.374 32.6513 27.9581 32.9436 28.5036C32.9453 28.5027 32.9471 28.5009 32.948 28.5001C33.2927 29.0666 33.7092 29.4548 34.1091 29.7192L34.4049 29.9212C34.4285 29.937 34.4521 29.952 34.4775 29.966C36.1435 30.8795 39.1125 30.8268 41.9283 29.2185C41.6316 28.739 41.3831 28.2041 41.1854 27.6156L41.1845 27.6164ZM33.9114 25.4004C33.8729 23.7095 34.3725 21.8 34.7085 20.8619C34.7129 20.8496 34.7173 20.8373 34.7208 20.825C35.1705 19.3775 35.8171 17.7587 36.5915 16.1434C37.5646 14.1118 38.6697 12.233 39.7031 10.854C40.5965 9.66119 41.2116 9.14297 41.5266 8.95412C41.5765 9.31864 41.5573 10.125 41.1871 11.5698C40.7592 13.2414 39.9875 15.2809 39.0145 17.3125C37.8621 19.7192 36.5872 21.9765 35.328 23.8413L35.2668 23.9282C34.9833 24.3332 34.6621 24.7029 34.3121 25.0297C34.1756 25.1571 34.0417 25.2809 33.9105 25.3995L33.9114 25.4004Z" fill="white"/>
<path d="M50.1895 27.64C49.3153 28.1732 48.4438 28.5202 47.588 28.6668C45.8835 28.9602 44.8221 28.3805 44.7337 28.3304C44.7259 28.3252 44.7276 28.3269 44.7171 28.3208C44.4319 28.1548 44.2043 27.9325 44.025 27.6673C45.1546 26.5755 47.1059 24.1793 49.6907 19.0761C52.2912 13.9422 52.6404 11.2044 52.6675 10.9619L52.8145 9.7744C52.8162 9.75771 52.818 9.74015 52.8189 9.72346C52.9037 8.42262 52.5879 7.58907 51.88 7.24739C50.9 6.77484 49.6916 7.46258 48.1848 9.35192C46.9808 10.8609 45.6901 13.0023 44.5509 15.3809C43.7441 17.0656 43.0668 18.7599 42.5926 20.2839C42.5191 20.492 41.9547 22.1372 41.7639 24.0265C41.6598 25.0568 41.6913 25.9185 41.8173 26.6405C42.0089 27.424 42.3064 28.2057 42.7588 28.8952C43.0957 29.3247 43.4755 29.6278 43.8412 29.8403C44.0346 29.9536 45.502 30.7556 47.7202 30.4235C48.8043 30.261 49.8779 29.8684 50.9367 29.2492C50.6322 28.7661 50.382 28.2285 50.1903 27.6392L50.1895 27.64ZM43.4632 25.7103C43.3311 23.5206 44.2315 20.9013 44.2455 20.8627C44.2498 20.8504 44.2542 20.8381 44.2577 20.8258C44.7075 19.3783 45.3541 17.7595 46.1285 16.1442C47.1015 14.1126 48.2067 12.2338 49.2401 10.8548C50.1317 9.66461 50.7468 9.1455 51.0618 8.95578C51.0802 9.08753 51.0925 9.28955 51.075 9.58556L50.9306 10.7529C50.9306 10.7529 50.9288 10.7652 50.9288 10.7696C50.9262 10.795 50.6261 13.3563 48.1314 18.2803C46.0865 22.3172 44.4905 24.5316 43.4632 25.7103Z" fill="white"/>
<path d="M74.2708 21.1121C73.8473 20.8785 73.3153 21.033 73.0825 21.4582C71.98 23.467 70.741 25.0014 69.2946 26.1486L69.1826 26.2311L69.1747 26.2373C65.0875 29.3335 63.0487 28.0616 62.8807 27.9465C62.8431 27.9149 62.8273 27.9061 62.7818 27.8807C62.6462 27.8016 62.5202 27.7111 62.4047 27.6093C63.8703 26.1433 67.2321 22.3919 67.4273 18.651C67.5069 17.1226 67.0974 16.1134 66.211 15.6523H66.2084C66.1917 15.6417 66.1751 15.6329 66.1576 15.6242C64.37 14.7616 62.1614 16.8846 60.904 19.4274C60.8541 19.5284 60.806 19.6365 60.757 19.7577L60.4394 20.5447C60.4359 20.5535 60.4324 20.5631 60.4289 20.5719C60.3536 20.7774 59.0157 24.5271 60.1016 27.2764C60.3659 27.8903 60.7343 28.4279 61.2024 28.889C61.401 29.0682 61.6215 29.2324 61.8692 29.38C62.1115 29.5478 62.9498 30.0467 64.3411 30.0467C65.7507 30.0467 67.7274 29.5337 70.2247 27.6426L70.3446 27.5539C70.3525 27.5487 70.3595 27.5425 70.3673 27.5364C72.0062 26.2399 73.3958 24.5289 74.6155 22.3049C74.8483 21.8798 74.6943 21.3457 74.2708 21.1121ZM61.5367 25.9817C61.4282 25.4591 61.3984 24.8477 61.45 24.1512C61.5603 22.6562 62.0197 21.3211 62.0669 21.1868L62.3776 20.4164C62.4099 20.3374 62.4397 20.2689 62.4703 20.2083C63.6035 17.9184 65.0289 17.062 65.3876 17.2017C65.3929 17.2043 65.399 17.2078 65.4051 17.2113C65.5714 17.2983 65.721 17.748 65.679 18.5579C65.5302 21.4063 62.9734 24.4718 61.5367 25.9817Z" fill="white"/>
<path d="M59.3519 27.7402C58.4244 28.2584 57.4383 28.6053 56.4784 28.7424C55.3041 28.9101 54.2313 28.7529 53.6101 28.3207C53.3948 28.1706 53.2058 27.9615 53.0448 27.698C54.1412 26.723 55.2192 25.496 56.2728 24.0203C56.2824 24.0063 56.292 23.9931 56.3008 23.9782L57.412 22.218C57.4322 22.1863 57.4505 22.153 57.4663 22.1178C58.6589 19.5434 58.9311 16.4859 57.1443 15.6233C55.3566 14.7608 53.149 16.8837 51.8907 19.4266C51.8408 19.5276 51.7927 19.6356 51.7437 19.7568L51.426 20.5438C51.4225 20.5526 51.419 20.5623 51.4155 20.5711C51.4077 20.5921 51.2222 21.1033 51.0384 21.8684C50.9632 22.1802 50.8984 22.4938 50.845 22.8012L50.677 23.6971C50.67 23.7349 50.6657 23.7735 50.663 23.8122C50.6123 24.7467 50.649 25.5926 50.7698 26.3445C50.943 27.279 51.2764 28.2522 51.8828 29.0849C52.0989 29.3475 52.3422 29.575 52.6134 29.763C53.366 30.2865 54.4134 30.5632 55.5867 30.5632C55.9551 30.5632 56.3366 30.5359 56.7251 30.4806C57.6395 30.3497 58.9162 30.0177 60.3101 29.2167C59.9207 28.7766 59.6004 28.2821 59.3528 27.7393L59.3519 27.7402ZM52.4656 25.8297C52.3938 25.2746 52.3737 24.6484 52.4078 23.9659L52.5662 23.1209C52.5662 23.1209 52.5679 23.113 52.5679 23.1086C52.6152 22.8372 52.6729 22.5588 52.7394 22.2821C52.8838 21.6804 53.0291 21.2606 53.0545 21.1885L53.3651 20.4182C53.3975 20.3392 53.4272 20.2707 53.4578 20.2101C54.6032 17.8956 56.0479 17.0445 56.3865 17.2087C56.7225 17.3704 56.9623 19.0111 55.9035 21.3291L54.8369 23.019C54.0598 24.1038 53.2662 25.0436 52.4656 25.8306V25.8297Z" fill="white"/>
</svg>
