<svg width="190" height="26" viewBox="0 0 190 26" fill="none" xmlns="http://www.w3.org/2000/svg">
<path d="M39.7574 19.4526C42.4319 19.4526 44.1813 17.5687 44.1813 14.9951V7.72855C44.1813 7.61081 44.0803 7.50988 43.9626 7.50988H43.6262C43.458 7.50988 43.3907 7.59399 43.3907 7.72855V14.9278C43.3907 17.0977 42.0114 18.6789 39.7574 18.6789C37.5202 18.6789 36.1578 17.0809 36.1578 14.911V7.72855C36.1578 7.61081 36.0568 7.50988 35.9391 7.50988H35.5859C35.4681 7.50988 35.3672 7.61081 35.3672 7.72855V14.9951C35.3672 17.5687 37.0997 19.4526 39.7574 19.4526ZM62.7738 19.4526C62.9083 19.4526 63.0429 19.3853 63.0429 19.2339V7.72855C63.0429 7.61081 62.942 7.50988 62.8243 7.50988H62.4879C62.3701 7.50988 62.2692 7.61081 62.2692 7.72855V17.8546H62.2524L54.1784 7.34167H53.8925C53.7579 7.34167 53.6401 7.42577 53.6401 7.56034V19.0657C53.6401 19.1835 53.7411 19.2844 53.8588 19.2844H54.1784C54.2961 19.2844 54.3971 19.1835 54.3971 19.0657V8.83873H54.4139C62.1541 19.072 62.5222 19.4392 62.5529 19.4521L62.7738 19.4526ZM75.5464 19.4526C77.4807 19.4526 79.2132 18.1406 79.2132 16.4585C79.2132 14.5073 77.7498 13.6999 75.4454 12.9093C73.7465 12.3542 72.6532 11.7319 72.6532 10.3021C72.6532 9.34334 73.4269 8.06497 75.4959 8.06497C76.7911 8.06497 77.9181 8.8219 77.9685 8.85554C78.1367 8.95646 78.2377 8.906 78.3386 8.77144C78.3722 8.70415 78.4227 8.62006 78.4731 8.55277C78.5909 8.36774 78.4732 8.24999 78.4059 8.19953C78.4059 8.19953 77.178 7.34167 75.5127 7.34167C72.8887 7.34167 71.8794 9.05739 71.8794 10.319C71.8794 12.2533 73.1746 12.943 75.1258 13.6326C77.1611 14.3223 78.3891 14.9951 78.3891 16.4922C78.3891 17.7201 77.0939 18.7461 75.5632 18.7461C73.8643 18.7461 72.6195 17.6023 72.4513 17.4509C72.3168 17.3332 72.199 17.3837 72.0813 17.5182L71.9299 17.7201C71.7953 17.9051 71.8794 17.9892 71.9803 18.0733C72.199 18.2751 73.5447 19.4526 75.5464 19.4526ZM93.0455 19.4526C94.5425 19.4526 96.006 18.9312 97.1498 17.821C97.2339 17.7369 97.2339 17.6023 97.1498 17.535L96.8638 17.2491C96.7965 17.1986 96.6956 17.1986 96.5947 17.2827C95.5855 18.1238 94.4921 18.6957 93.0455 18.6957C90.1019 18.6957 87.7975 16.3071 87.7975 13.414C87.7975 10.504 90.1019 8.09861 93.0455 8.09861C94.4248 8.09861 95.6359 8.62005 96.5947 9.4779C96.6956 9.57883 96.7797 9.59565 96.8806 9.49473L97.1498 9.20878C97.2339 9.12467 97.2171 8.9901 97.133 8.906C96.0396 7.91358 94.7612 7.34167 93.0455 7.34167C89.6813 7.34167 86.9564 10.0498 86.9564 13.414C86.9564 16.7949 89.6813 19.4526 93.0455 19.4526ZM106.424 19.2844C106.592 19.2844 106.693 19.1835 106.693 19.0657V14.7428H109.788C110.006 14.7428 110.191 14.7428 110.41 14.726L112.849 19.133C112.9 19.2339 112.967 19.2844 113.085 19.2844H113.606C113.774 19.2844 113.808 19.1162 113.724 18.9816L111.268 14.6251C112.866 14.1709 114.043 12.8084 114.043 11.1095C114.043 9.05739 112.345 7.50988 110.292 7.50988H106.121C105.986 7.50988 105.902 7.61081 105.902 7.72855V19.0657C105.902 19.1835 106.003 19.2844 106.121 19.2844H106.424ZM110.259 14.0363H106.71V8.28363H110.242C111.874 8.28363 113.236 9.51155 113.236 11.1095C113.236 12.7748 111.874 14.0363 110.259 14.0363ZM123.435 19.2844C123.553 19.2844 123.67 19.2003 123.67 19.0657V7.72855C123.67 7.61081 123.57 7.50988 123.452 7.50988H123.082C122.964 7.50988 122.863 7.61081 122.863 7.72855V19.0657C122.863 19.1835 122.964 19.2844 123.082 19.2844H123.435ZM133.785 19.2844C133.954 19.2844 134.054 19.1835 134.054 19.0657V15.096H137.116C139.185 15.096 140.901 13.3803 140.901 11.2777C140.901 9.20878 139.185 7.50988 137.099 7.50988H133.483C133.365 7.50988 133.264 7.61081 133.264 7.72855V19.0657C133.264 19.1835 133.365 19.2844 133.483 19.2844H133.785ZM137.065 14.3223H134.054V8.30046H137.049C138.714 8.30046 140.11 9.61247 140.11 11.2609C140.11 12.9598 138.714 14.3223 137.065 14.3223ZM151.587 19.2844C151.756 19.2844 151.856 19.1835 151.856 19.0657V8.23317H155.086C155.221 8.23317 155.305 8.13225 155.305 8.01451V7.72855C155.305 7.61081 155.221 7.50988 155.086 7.50988H147.853C147.735 7.50988 147.634 7.59399 147.634 7.72855V7.98087C147.634 8.13225 147.685 8.23317 147.853 8.23317H151.066V19.0657C151.066 19.1835 151.167 19.2844 151.285 19.2844H151.587ZM170.213 19.2844C170.331 19.2844 170.432 19.1835 170.432 19.0657V18.7966C170.432 18.6788 170.331 18.5779 170.213 18.5779H164.057V13.599H169.389C169.507 13.599 169.608 13.4981 169.608 13.3803V13.0944C169.608 12.9766 169.507 12.8757 169.389 12.8757H164.057V8.23317H170.213C170.331 8.23317 170.432 8.13225 170.432 8.01451V7.72855C170.432 7.61081 170.331 7.50988 170.213 7.50988H163.468C163.351 7.50988 163.25 7.61081 163.25 7.72855V19.0657C163.25 19.1835 163.351 19.2844 163.468 19.2844H170.213ZM183.104 19.2844C186.367 19.2844 189.025 16.6604 189.025 13.3803C189.025 10.1507 186.367 7.50988 183.104 7.50988H179.538C179.437 7.50988 179.336 7.61081 179.336 7.72855V19.0657C179.336 19.1835 179.437 19.2844 179.538 19.2844H183.104ZM182.969 18.5611H180.126V8.23317H182.969C185.913 8.23317 188.184 10.4703 188.184 13.3803C188.184 16.324 185.913 18.5611 182.969 18.5611Z" fill="white"/>
<path d="M19.5019 6.12078C19.4977 6.11001 19.494 6.09924 19.4902 6.08847L19.5314 6.07678C19.5295 6.08091 19.5274 6.0848 19.5253 6.0887C19.5185 6.10004 19.5106 6.11077 19.5019 6.12078Z" fill="white"/>
<path fill-rule="evenodd" clip-rule="evenodd" d="M13.9842 0.871656C13.9769 0.894242 13.9693 0.917919 13.9615 0.942665C13.8808 1.19771 13.7839 1.53746 13.68 1.90282C13.674 1.92393 13.668 1.94516 13.6619 1.96648C13.4643 2.66167 13.2368 3.46181 13.0668 3.82997C12.8873 4.21898 12.8222 4.56517 12.8089 4.82014C12.8009 4.97588 12.8124 5.09184 12.8258 5.15873C12.8411 5.23517 12.8418 5.34494 12.841 5.43621C12.84 5.54258 12.8353 5.67653 12.8282 5.82787C12.8138 6.13119 12.7885 6.51527 12.7583 6.91083C12.6983 7.69715 12.6174 8.55092 12.5616 8.91329C12.4939 9.35366 12.6806 9.75708 12.7682 9.88233C12.8812 10.0438 12.842 10.2662 12.6805 10.3793C12.5191 10.4923 12.2966 10.453 12.1836 10.2916C12.0222 10.0609 11.7532 9.47488 11.8563 8.80478C11.9074 8.47312 11.9866 7.64519 12.0467 6.85657C12.0766 6.46467 12.1014 6.08798 12.1154 5.79402C12.1221 5.65285 12.1261 5.53324 12.1272 5.4413C12.0405 5.51211 11.9604 5.58767 11.9001 5.66289C11.8689 5.70177 11.8476 5.73506 11.8341 5.76203C11.8235 5.7832 11.8001 5.84515 11.7666 5.96211C11.7351 6.07194 11.6999 6.21114 11.6622 6.37262C11.5869 6.6952 11.5044 7.09416 11.4246 7.49985C11.3303 7.97903 11.2355 8.49129 11.1645 8.87467C11.1191 9.11971 11.0835 9.3121 11.064 9.40956C11.0408 9.52579 11.0673 9.69931 11.1431 9.90188C11.2157 10.096 11.316 10.2702 11.3812 10.3644C11.4934 10.5264 11.453 10.7487 11.291 10.8609C11.1289 10.973 10.9067 10.9326 10.7945 10.7706C10.6995 10.6334 10.5703 10.4072 10.4748 10.152C10.3824 9.90524 10.3021 9.58047 10.3643 9.26961C10.3868 9.15726 10.4219 8.96712 10.4664 8.72612C10.5343 8.35809 10.6242 7.87145 10.7244 7.36211C10.804 6.95754 10.8875 6.5529 10.9651 6.21995C10.9588 6.22302 10.9529 6.22596 10.9472 6.22883C10.9251 6.24004 10.9137 6.24689 10.9085 6.25024C10.9018 6.26291 10.8806 6.30946 10.8454 6.44166C10.7569 6.77429 10.3256 8.55198 10.1608 9.26027C10.13 9.39291 10.1101 9.48127 10.103 9.51633C10.1032 9.51572 10.1032 9.51542 10.1032 9.51542C10.1034 9.51544 10.1015 9.53272 10.1081 9.57304C10.1151 9.61546 10.1287 9.66737 10.1484 9.72533C10.1881 9.84207 10.2428 9.95595 10.2786 10.0205C10.3743 10.1928 10.3123 10.41 10.14 10.5057C9.96774 10.6014 9.75052 10.5393 9.65482 10.3671C9.6017 10.2715 9.52827 10.1184 9.47272 9.95485C9.4231 9.80879 9.36194 9.58315 9.4033 9.37638C9.40651 9.36033 9.41117 9.33851 9.41707 9.31179L9.13238 9.07132C9.08379 9.13703 9.01249 9.18648 8.92666 9.20651C8.73476 9.25129 8.54289 9.13202 8.49811 8.94012C8.43687 8.67767 8.33152 8.25627 8.21548 7.84906C8.1031 7.45468 7.98901 7.10402 7.90121 6.91517C7.94506 7.11296 8.00016 7.34585 8.05812 7.58824C8.07314 7.65106 8.08847 7.71493 8.1039 7.77925C8.23445 8.32333 8.37264 8.89926 8.39939 9.14002C8.4188 9.31465 8.50165 9.53498 8.62745 9.77401C8.75038 10.0076 8.90036 10.2332 9.02916 10.4135C9.24049 10.7094 10.5013 12.4178 11.1078 13.2383C11.225 13.3968 11.1915 13.6202 11.033 13.7374C10.8745 13.8545 10.6511 13.821 10.534 13.6625C9.93036 12.8458 8.66421 11.1303 8.44846 10.8283C8.31033 10.6349 8.13998 10.38 7.99597 10.1064C7.85484 9.83822 7.72413 9.52468 7.69015 9.21882C7.66875 9.02624 7.54133 8.4943 7.40419 7.92175C7.39088 7.8662 7.37748 7.81026 7.36408 7.75421C7.29082 7.44784 7.21961 7.14621 7.17006 6.91042C7.14541 6.79313 7.1249 6.68643 7.11227 6.60109C7.10603 6.55892 7.10073 6.51556 7.09848 6.47561L7.09836 6.47359C7.09694 6.44892 7.09242 6.37022 7.11901 6.29044C7.17651 6.11795 7.31586 6.02041 7.43518 5.97615C7.5598 5.92992 7.69795 5.92518 7.83021 5.95524C8.10364 6.01738 8.35415 6.22419 8.52407 6.56403C8.648 6.8119 8.78505 7.2439 8.90177 7.6535C8.93765 7.77943 8.9725 7.90647 9.00541 8.02997L9.59972 8.53196C9.79782 7.70209 10.0834 6.53015 10.1558 6.25811C10.2081 6.06169 10.2672 5.87415 10.4152 5.73372C10.4864 5.66616 10.5632 5.62344 10.6245 5.59234C10.6534 5.57771 10.6846 5.5629 10.7137 5.54905L10.7197 5.54621C10.7519 5.53092 10.7849 5.51516 10.8215 5.49687C11.0314 5.39195 11.2616 5.24928 11.3811 5.17114C11.5921 4.92639 11.8919 4.71592 12.1137 4.58288C12.1505 4.27843 12.2403 3.91794 12.4189 3.53093C12.5641 3.21635 12.7816 2.45306 12.9936 1.70761C13.0966 1.34557 13.1966 0.99461 13.2811 0.727463C13.3231 0.594596 13.3636 0.475137 13.4005 0.382553C13.4187 0.336926 13.4392 0.289849 13.4618 0.24809C13.473 0.227231 13.4881 0.201603 13.5071 0.175765C13.5232 0.153945 13.5576 0.110314 13.6127 0.0735474C13.736 -0.00866281 13.8668 -0.00692202 13.9507 0.00790632C14.0362 0.0230122 14.112 0.0574076 14.1723 0.0921207C14.2943 0.162416 14.4124 0.268729 14.5126 0.389857C14.71 0.628322 14.898 0.999106 14.86 1.41709C14.8167 1.89395 14.5969 3.30128 14.4889 3.96934C14.4932 4.08029 14.4982 4.20046 14.5039 4.32799C14.6764 4.43547 14.8833 4.57346 15.0692 4.71621C15.1942 4.81228 15.3185 4.91715 15.4178 5.02161C15.4675 5.07389 15.5168 5.1321 15.5575 5.19442C15.5961 5.25353 15.6407 5.3368 15.6574 5.43702C15.7263 5.85027 15.4719 6.16127 15.1538 6.2675C15.0773 6.42976 14.9596 6.55195 14.8432 6.6383C14.7821 6.68367 14.7184 6.72156 14.6557 6.75273C14.6863 7.11567 14.7203 7.46048 14.7572 7.76215C15.089 8.21245 15.6191 8.86364 16.1903 9.43416C16.4917 9.73529 16.7986 10.0079 17.0888 10.2157C17.3184 10.3801 17.5215 10.4923 17.6916 10.5523C17.7852 10.4782 17.8772 10.3889 17.9733 10.2791C18.0405 10.2023 18.129 10.0665 18.2341 9.87659C18.3366 9.69154 18.4447 9.47382 18.5539 9.24564C18.6201 9.10708 18.6876 8.96267 18.7541 8.8203C18.9005 8.50694 19.0423 8.20349 19.1565 7.99414C19.3757 7.59218 19.7635 7.37377 20.0788 7.27675C20.2384 7.22766 20.4005 7.20275 20.5411 7.20782C20.6096 7.21029 20.6919 7.22046 20.7715 7.25125C20.8426 7.27879 20.9803 7.35095 21.0361 7.51829C21.0628 7.5985 21.0581 7.67634 21.0566 7.70154L21.0566 7.70286C21.0542 7.74274 21.0486 7.78519 21.0421 7.82568C21.0291 7.90765 21.008 8.00846 20.9827 8.1178C20.9317 8.33794 20.8584 8.61562 20.7812 8.89426C20.6271 9.45047 20.4517 10.0311 20.3954 10.1998C20.3784 10.2508 20.3613 10.2986 20.3444 10.3457C20.2985 10.4734 20.2545 10.5961 20.2196 10.7659C20.1743 10.987 20.1486 11.2824 20.1978 11.7003L20.199 11.711L20.1989 11.7111C20.3191 13.0938 19.9799 14.288 19.5999 15.1054C19.8031 15.5424 20.1586 16.2366 20.5851 16.9414C21.0289 17.6747 21.5344 18.3939 22.0122 18.8518C22.1545 18.9882 22.1593 19.214 22.023 19.3563C21.8866 19.4986 21.6608 19.5034 21.5185 19.367C20.9713 18.8426 20.4268 18.0581 19.9746 17.3108C19.6608 16.7923 19.3841 16.2794 19.1737 15.8614C19.132 15.9214 19.092 15.9752 19.0543 16.0223C18.9312 16.1762 18.7066 16.2011 18.5528 16.078C18.3989 15.9549 18.3739 15.7304 18.497 15.5765C18.8761 15.1027 19.6482 13.6347 19.4884 11.7781C19.4316 11.2912 19.4594 10.9208 19.5206 10.6225C19.5667 10.3975 19.6349 10.2083 19.6833 10.0739C19.6969 10.0362 19.7089 10.0028 19.7185 9.97412C19.769 9.82245 19.9406 9.25527 20.0935 8.70369C20.1695 8.42952 20.2394 8.16432 20.2869 7.95937C20.0823 8.02271 19.8837 8.15111 19.7829 8.33586C19.6796 8.52535 19.5545 8.79326 19.4145 9.09305C19.3455 9.24067 19.273 9.39602 19.1976 9.55353C19.0865 9.78582 18.9712 10.0186 18.8584 10.2222C18.7483 10.421 18.6299 10.6123 18.5103 10.749C18.3398 10.9439 18.1608 11.1082 17.9531 11.2415C17.6552 11.4327 17.3215 11.5452 16.9124 11.6134C16.718 11.6458 16.5342 11.5145 16.5018 11.3201C16.4694 11.1258 16.6007 10.9419 16.795 10.9095C16.8068 10.9076 16.8185 10.9056 16.83 10.9035C16.7773 10.8689 16.725 10.8329 16.6733 10.7959C16.3407 10.5577 16.0036 10.2563 15.6859 9.93904C15.4061 9.65948 15.1366 9.36282 14.8934 9.07782C14.8595 9.12164 14.8148 9.15817 14.761 9.18301C14.582 9.26558 14.37 9.18747 14.2875 9.00855C14.2323 8.88908 14.1913 8.72683 14.1578 8.55948C14.1227 8.38431 14.0905 8.17446 14.0608 7.94359C14.008 7.53275 13.9618 7.04249 13.9223 6.53784C13.9029 6.28877 13.885 6.03551 13.8689 5.78568C13.8407 5.3513 13.8176 4.92671 13.7998 4.55162C13.7896 4.33605 13.7811 4.13666 13.7744 3.96099L13.7731 3.92544L13.7788 3.89033C13.8865 3.22591 14.108 1.8067 14.1493 1.35249C14.1638 1.19324 14.0948 1.01583 13.9842 0.871656ZM14.5645 5.47799C14.5592 5.39055 14.5541 5.30386 14.5492 5.21825C14.5781 5.23943 14.6066 5.26077 14.6345 5.28214C14.7457 5.3676 14.8375 5.44691 14.9007 5.51329C14.9256 5.53958 14.9425 5.56004 14.9531 5.57457C14.9524 5.57601 14.9511 5.57805 14.9485 5.5806C14.9447 5.58435 14.9388 5.58829 14.9315 5.59092C14.9243 5.59351 14.9178 5.59408 14.9127 5.59359C14.9098 5.59331 14.907 5.59265 14.9041 5.5915C14.7896 5.5457 14.6701 5.50759 14.5645 5.47799ZM14.9649 5.59278C14.9649 5.59276 14.9645 5.59219 14.964 5.59109L14.9649 5.59278ZM7.81096 6.43552C7.81032 6.42419 7.81123 6.42562 7.81097 6.43569L7.81096 6.43552ZM11.0073 13.881C11.1528 13.7481 11.3785 13.7583 11.5114 13.9038C12.1712 14.626 13.1875 15.7546 14.093 16.7944C14.5456 17.3141 14.972 17.8133 15.3128 18.2292C15.647 18.6369 15.9168 18.986 16.0401 19.1955L16.0424 19.1994L16.0424 19.1994C16.088 19.2793 16.1831 19.4254 16.3183 19.6332L16.3286 19.649C16.4654 19.8592 16.6342 20.1192 16.8101 20.4032C17.1587 20.9663 17.5479 21.6447 17.7744 22.2391C17.9008 22.5708 18.026 22.917 18.1407 23.2338C18.2182 23.4482 18.2909 23.6491 18.3558 23.823C18.4389 24.0456 18.5105 24.2281 18.5696 24.3593C18.5994 24.4254 18.6225 24.4708 18.6391 24.4988C18.6407 24.5014 18.6421 24.5037 18.6434 24.5058C18.7709 24.6227 18.7977 24.8181 18.6988 24.9665C18.5895 25.1305 18.368 25.1748 18.204 25.0655C18.1101 25.0028 18.0519 24.9076 18.0252 24.8626C17.9891 24.8015 17.9534 24.7289 17.9189 24.6523C17.8495 24.4982 17.771 24.297 17.6873 24.0725C17.6162 23.8819 17.5419 23.6765 17.4641 23.4614C17.3528 23.1535 17.2342 22.8258 17.1075 22.4932C16.9069 21.9665 16.5487 21.3368 16.2033 20.7788C16.0321 20.5023 15.8672 20.2483 15.7305 20.0382L15.7062 20.001C15.5846 19.8141 15.4806 19.6543 15.424 19.5556C15.333 19.4016 15.1006 19.096 14.7609 18.6815C14.4265 18.2735 14.0054 17.7804 13.5549 17.263C12.6541 16.2287 11.6417 15.1044 10.9846 14.3851C10.8517 14.2396 10.8619 14.0139 11.0073 13.881ZM18.6525 24.5193C18.6525 24.5194 18.6515 24.5182 18.6494 24.5152C18.6515 24.5177 18.6525 24.5191 18.6525 24.5193Z" fill="white"/>
<path fill-rule="evenodd" clip-rule="evenodd" d="M7.7357 7.57358C7.9032 7.48191 7.96944 7.27334 7.88333 7.10112C7.79521 6.92487 7.58088 6.85343 7.40463 6.94156C7.24545 7.02115 7.14528 7.15615 7.08011 7.27911C7.01412 7.40363 6.96679 7.54848 6.92916 7.69492C6.86432 7.94725 6.81433 8.2637 6.76187 8.5957C6.754 8.64551 6.74608 8.69566 6.73804 8.746C6.61091 9.54225 6.4439 10.4618 6.02119 11.2575L6.01215 11.2745L6.005 11.2924C5.957 11.4124 5.82311 11.5836 5.57647 11.8051C5.33827 12.0191 5.03036 12.2496 4.68261 12.4946C4.48807 12.6317 4.28019 12.7739 4.06782 12.919C3.53799 13.2813 2.98021 13.6626 2.53208 14.0328C2.22795 14.284 1.95244 14.7083 1.70761 15.1821C1.45737 15.6662 1.21859 16.2435 1.00136 16.8389C0.566704 18.0301 0.207978 19.3224 0.00986545 20.1509C-0.0359648 20.3425 0.0822485 20.535 0.273902 20.5809C0.465556 20.6267 0.658075 20.5085 0.703905 20.3168C0.897301 19.5081 1.24863 18.2431 1.67173 17.0835C1.88338 16.5034 2.11041 15.9569 2.34155 15.5097C2.57809 15.0521 2.79953 14.7374 2.98656 14.5829C3.40831 14.2345 3.92151 13.8837 4.43976 13.5295C4.65902 13.3796 4.87918 13.2291 5.09369 13.0779C5.44665 12.8292 5.78272 12.5791 6.05337 12.336C6.3096 12.1058 6.54443 11.8498 6.65968 11.5766C7.13831 10.6678 7.31699 9.64601 7.44273 8.85851C7.45109 8.80615 7.45917 8.75509 7.46705 8.70533C7.5206 8.36719 7.56461 8.08932 7.62031 7.87252C7.65192 7.74953 7.68259 7.66622 7.71065 7.61327C7.7227 7.59053 7.73145 7.57871 7.7357 7.57358ZM8.32712 9.5736C8.52399 9.58216 8.67665 9.74869 8.66809 9.94556C8.665 10.0166 8.66154 10.1043 8.65773 10.201C8.6552 10.2653 8.65251 10.3335 8.64966 10.4037C8.76632 10.353 8.90638 10.3665 9.0132 10.4508C9.16787 10.5729 9.19427 10.7973 9.07216 10.952C8.94655 11.1111 8.73578 11.3718 8.50163 11.6496C8.49878 11.6531 8.49586 11.6565 8.49288 11.6599C8.29661 11.8925 8.08452 12.1362 7.89271 12.3415C8.00419 12.4761 8.00258 12.6757 7.8816 12.8087C7.74904 12.9545 7.52339 12.9653 7.37757 12.8327L6.79031 12.2989C6.6445 12.1663 6.63376 11.9406 6.76631 11.7948C6.89887 11.649 7.12453 11.6383 7.27034 11.7708L7.36711 11.8588C7.53008 11.6846 7.71174 11.4773 7.88557 11.2728C7.89733 11.1604 7.90967 10.9672 7.92093 10.7337C7.92999 10.5457 7.93765 10.3511 7.94439 10.1801C7.94825 10.0818 7.95182 9.99142 7.95516 9.91457C7.96372 9.7177 8.13025 9.56504 8.32712 9.5736ZM9.7662 11.5401C9.93846 11.6358 10.0005 11.853 9.90483 12.0253C9.7817 12.2469 9.53462 12.5757 9.29407 12.8787C9.12006 13.0979 8.93934 13.316 8.79012 13.4922C8.84984 13.5951 8.90924 13.6999 8.96321 13.7988C8.96688 13.8056 8.97056 13.8123 8.97423 13.8191C9.10276 13.7341 9.24319 13.6552 9.39715 13.5824C9.51898 13.4766 9.69075 13.3244 9.84974 13.1773C10.0367 13.0042 10.1744 12.8667 10.2151 12.8125C10.3333 12.6548 10.5569 12.6229 10.7146 12.7411C10.842 12.8367 10.8873 13.0011 10.8376 13.1438C10.9806 13.124 11.1005 13.1204 11.2037 13.1327C11.3455 13.1498 11.4594 13.1966 11.5553 13.2672C11.618 13.3133 11.6816 13.3809 11.7054 13.4061C11.7094 13.4103 11.7122 13.4133 11.7138 13.4149C11.8713 13.5724 11.8417 13.7687 11.8125 13.8608C11.7831 13.9536 11.7297 14.035 11.6861 14.0941C11.5947 14.2182 11.4609 14.3559 11.3301 14.4833C11.2381 14.573 11.137 14.6675 11.0411 14.7573C10.9986 14.797 10.9572 14.8357 10.918 14.8727C10.784 14.9991 10.6773 15.1037 10.6113 15.1807C10.5809 15.2161 10.5263 15.301 10.4523 15.4449C10.4443 15.4604 10.4362 15.4764 10.428 15.4927C10.823 15.1273 11.2478 14.764 11.6306 14.496C11.792 14.383 12.0145 14.4223 12.1275 14.5837C12.2405 14.7452 12.2012 14.9676 12.0398 15.0806C11.2497 15.6337 10.2274 16.6614 9.76312 17.1628C9.69161 17.3783 9.64194 17.5472 9.62091 17.6419C9.53086 18.0471 9.27292 18.4627 8.91297 18.8488C8.54888 19.2394 8.06093 19.6212 7.47429 19.9564C7.26615 20.0753 7.06777 20.1852 6.87949 20.2896C6.46038 20.5218 6.09136 20.7262 5.77641 20.9406C5.32362 21.2488 5.06504 21.526 4.96845 21.8351C4.7643 22.4884 4.57172 23.6305 4.50062 24.1282C4.47275 24.3233 4.29202 24.4588 4.09694 24.431C3.90186 24.4031 3.76631 24.2224 3.79418 24.0273C3.86545 23.5284 4.06437 22.3357 4.28732 21.6223C4.45767 21.0772 4.88442 20.6845 5.3749 20.3507C5.71803 20.1171 6.13289 19.8872 6.56754 19.6463C6.74957 19.5454 6.93508 19.4426 7.12024 19.3368C7.65473 19.0314 8.08327 18.6924 8.39097 18.3623C8.70282 18.0277 8.87197 17.7225 8.92429 17.4871C8.95648 17.3422 9.02562 17.1155 9.11097 16.863C9.23429 16.4981 9.40103 16.0515 9.56806 15.6588C9.65152 15.4625 9.73662 15.2761 9.81778 15.1184C9.89535 14.9676 9.98128 14.8191 10.0694 14.7163C10.1636 14.6064 10.2971 14.4774 10.4283 14.3536C10.4723 14.3121 10.5164 14.2708 10.5603 14.2298C10.6535 14.1427 10.7454 14.0567 10.8321 13.9722C10.8778 13.9277 10.9194 13.8861 10.9565 13.8477C10.8255 13.8645 10.6162 13.9089 10.2827 14.0089C10.0768 14.0707 9.89789 14.1377 9.74128 14.2093C9.46318 14.3365 9.25443 14.4785 9.08972 14.6332C8.89726 14.8139 8.7538 15.0221 8.63076 15.2682C8.58284 15.3641 8.52393 15.465 8.45949 15.5667C8.12527 16.0937 7.56831 16.7527 7.29553 17.0557C7.16371 17.2022 6.93811 17.2141 6.79163 17.0823C6.64516 16.9504 6.63329 16.7248 6.76511 16.5784C6.8936 16.4356 7.08264 16.2161 7.2777 15.9737C5.81903 16.4618 4.466 17.3707 3.89313 17.8404C3.74074 17.9653 3.51592 17.9431 3.39099 17.7907C3.26605 17.6383 3.2883 17.4135 3.44069 17.2886C4.15784 16.7006 6.0295 15.4519 7.93493 15.0557C7.95681 15.0176 7.97605 14.982 7.99249 14.9491C8.10754 14.719 8.24472 14.501 8.42096 14.2997C8.39705 14.2528 8.36887 14.1994 8.33673 14.1405C8.24914 13.9799 8.1442 13.7993 8.04702 13.6366C7.97439 13.515 7.90688 13.4047 7.85537 13.3221C7.75112 13.1549 7.80217 12.9348 7.9694 12.8305C8.10422 12.7465 8.2734 12.7634 8.38853 12.8607C8.49915 12.7279 8.61886 12.5815 8.7352 12.435C8.98 12.1266 9.1906 11.8415 9.28102 11.6787C9.37672 11.5065 9.59395 11.4444 9.7662 11.5401Z" fill="white"/>
</svg>
